# xmcd
#
# Track frame offsets:
#	150
#	24350
#	41800
#	60567
#	75030
#	97136
#	119063
#	132503
#	143804
#	158742
#	172910
#
# Disc length: 2492 seconds
#
# Revision: 1
# Processed by: cddbd v1.5.2PL0 Copyright (c) Steve Scherf et al.
# Submitted via: audiograbber 1.83.01
#
DISCID=8c09ba0b
DTITLE=Benjamin Folke Thomas - Too Close To Here
DYEAR=2014
DGENRE=
TTITLE0=Someday
TTITLE1=Love Somebody
TTITLE2=Blues For You
TTITLE3=Extend No Greeting
TTITLE4=Bye, Bye Baby (Bye, Bye)
TTITLE5=Let Her Know
TTITLE6=Ok Blues
TTITLE7=Fire
TTITLE8=I´m Alive
TTITLE9=One More Ride
TTITLE10=Postcard From Cazal
EXTD=
EXTT0=
EXTT1=
EXTT2=
EXTT3=
EXTT4=
EXTT5=
EXTT6=
EXTT7=
EXTT8=
EXTT9=
EXTT10=
PLAYORDER=
